<?xml version="1.0" encoding="UTF-8"?>
<svg id="Capa_1" xmlns="http://www.w3.org/2000/svg" version="1.1" xmlns:xlink="http://www.w3.org/1999/xlink" viewBox="0 0 269.32 190.13">
  <!-- Generator: Adobe Illustrator 30.5.0, SVG Export Plug-In . SVG Version: 2.1.4 Build 102)  -->
  <defs>
    <style>
      .st0 {
        fill: url(#Degradado_sin_nombre_5);
      }

      .st1 {
        fill: #ff8b00;
      }

      .st2 {
        fill: url(#Degradado_sin_nombre_51);
      }
    </style>
    <linearGradient id="Degradado_sin_nombre_5" data-name="Degradado sin nombre 5" x1="7.82" y1="56.92" x2="97.72" y2="56.92" gradientUnits="userSpaceOnUse">
      <stop offset="0" stop-color="#03a596"/>
      <stop offset=".46" stop-color="#16d1ac"/>
      <stop offset=".94" stop-color="#28fbc1"/>
    </linearGradient>
    <linearGradient id="Degradado_sin_nombre_51" data-name="Degradado sin nombre 5" x1="134.53" y1="57.05" x2="261.49" y2="57.05" xlink:href="#Degradado_sin_nombre_5"/>
  </defs>
  <g>
    <g>
      <path class="st0" d="M64.74,88.53c-17.44,0-31.61-14.18-31.61-31.62s14.17-31.61,31.61-31.61h32.52V0h-32.52c-15.19,0-29.49,5.91-40.25,16.67C13.74,27.43,7.82,41.73,7.82,56.92c0,31.39,25.52,56.92,56.92,56.92h32.47c.17,0,.34,0,.51,0l-.13-25.3h-32.85Z"/>
      <path class="st2" d="M261.49,79.05c0-8.34-2.94-16-7.84-22,4.9-6,7.84-13.66,7.84-22,0-.02,0-.03,0-.05,0-.07,0-.15,0-.22,0-19.21-15.57-34.79-34.79-34.79h-92.17,0c12.04.05,22.61,2.59,31.72,7.64,9.19,5.09,16.31,11.98,21.34,20.64,5.03,8.67,7.55,18.21,7.55,28.63s-2.52,19.97-7.55,28.63c-5.04,8.67-12.15,15.55-21.34,20.64-9.05,5.01-19.54,7.55-31.48,7.63l-.25.27h92.17c19.21,0,34.79-15.58,34.79-34.79,0-.07,0-.15,0-.22,0-.02,0-.03,0-.05ZM226.71,88.79h-23.4v-18.96h23.4c5.24,0,9.48,4.24,9.48,9.48s-4.24,9.48-9.48,9.48ZM226.71,44.27h-23.4v-18.96h23.4c5.24,0,9.48,4.25,9.48,9.48s-4.24,9.48-9.48,9.48Z"/>
    </g>
    <path class="st1" d="M122.18,27.37v59.1s44.44,7.23,44.44-29.55-44.44-29.55-44.44-29.55Z"/>
  </g>
  <g>
    <path d="M53.88,142.33c-1.23-.7-2.19-1.65-2.88-2.86-.69-1.21-1.04-2.55-1.04-4.01s.35-2.75,1.04-3.95c.69-1.2,1.65-2.15,2.88-2.85,1.23-.7,2.61-1.05,4.15-1.05,1.04,0,2.02.17,2.94.51.92.34,1.73.81,2.42,1.43l-2.03,2.22c-.9-.77-1.94-1.16-3.14-1.16-.91,0-1.73.22-2.46.65-.73.43-1.31,1.02-1.72,1.76-.42.74-.62,1.56-.62,2.45s.2,1.72.61,2.48.97,1.35,1.69,1.79c.72.44,1.51.66,2.39.66.71,0,1.38-.13,2-.4.63-.27,1.18-.66,1.65-1.18l2.05,2.31c-.75.72-1.62,1.28-2.59,1.67-.98.39-2.04.59-3.18.59-1.54,0-2.92-.35-4.15-1.05Z"/>
    <path d="M66.81,142.63c-.98-.49-1.77-1.19-2.36-2.12-.59-.93-.88-2.02-.88-3.28,0-1.12.27-2.14.8-3.08.53-.94,1.27-1.68,2.2-2.23.93-.55,1.97-.83,3.1-.83,1.05,0,2.02.28,2.89.83.87.55,1.56,1.29,2.07,2.22.51.93.77,1.94.77,3.04,0,.28,0,.53-.02.73-.02.2-.03.34-.05.4h-8.56c.19.79.58,1.38,1.17,1.79.59.41,1.29.61,2.11.61.57,0,1.13-.08,1.69-.24.56-.16,1.06-.39,1.5-.68l1.18,2.26c-1.31.86-2.77,1.3-4.39,1.3-1.16,0-2.24-.24-3.22-.73ZM71.47,134.42c-.53-.46-1.16-.68-1.89-.68s-1.3.23-1.83.68c-.53.46-.87,1.05-1.03,1.79h5.71c-.11-.74-.43-1.34-.97-1.79Z"/>
    <path d="M79.15,131.33v1.58c.88-1.21,2.12-1.82,3.73-1.82,1.49,0,2.57.45,3.22,1.34.65.9.98,2.19.98,3.89v6.79h-3.16v-6.39c0-.91-.15-1.58-.45-2-.3-.42-.83-.64-1.6-.64s-1.42.29-1.91.86c-.49.57-.73,1.31-.73,2.2v5.97h-3.16v-11.79h3.09Z"/>
    <path d="M89.63,142.33c-.62-.68-.93-1.69-.93-3.01v-5.45h-1.72v-2.55h1.72v-2.26l3.16-.71v2.97h3.25v2.55h-3.25v5.4c0,.47.1.81.29,1.03.2.21.45.32.77.32s.61-.06.9-.18c.28-.12.49-.22.61-.32l.9,2.33c-.9.6-1.89.9-2.99.9-1.18,0-2.08-.34-2.7-1.03Z"/>
    <path d="M98.58,131.33v2.26c.22-.63.67-1.2,1.36-1.72.68-.52,1.61-.78,2.77-.78v3.44c-1.38,0-2.41.33-3.08.98-.67.65-1,1.68-1,3.08v4.53h-3.16v-11.79h3.11Z"/>
    <path d="M105.69,142.55c-.97-.54-1.73-1.29-2.29-2.23-.56-.94-.84-1.97-.84-3.09s.28-2.15.84-3.09c.56-.94,1.32-1.69,2.29-2.23s2.02-.81,3.17-.81,2.23.27,3.19.81c.97.54,1.73,1.29,2.29,2.23.56.94.84,1.97.84,3.09s-.28,2.15-.84,3.09c-.56.94-1.32,1.69-2.29,2.23-.97.54-2.03.81-3.19.81s-2.2-.27-3.17-.81ZM111.07,139.53c.59-.6.88-1.37.88-2.3s-.29-1.67-.88-2.29-1.32-.92-2.2-.92-1.62.31-2.2.92-.88,1.38-.88,2.29.29,1.69.88,2.3c.59.61,1.32.91,2.2.91s1.61-.3,2.2-.91Z"/>
    <path d="M126.03,127.84c1.63,0,3.07.34,4.3,1.03,1.23.68,2.19,1.61,2.86,2.77.68,1.16,1.01,2.44,1.01,3.84s-.34,2.68-1.01,3.84c-.68,1.16-1.63,2.09-2.86,2.77-1.23.68-2.67,1.03-4.3,1.03h-6.13v-15.28h6.13ZM128.43,139.68c.74-.41,1.31-.98,1.71-1.71.4-.73.6-1.56.6-2.49s-.2-1.73-.6-2.46c-.4-.73-.97-1.3-1.71-1.72-.74-.42-1.59-.62-2.55-.62h-2.69v9.62h2.69c.96,0,1.81-.2,2.55-.61Z"/>
    <path d="M137.85,142.63c-.98-.49-1.77-1.19-2.36-2.12-.59-.93-.88-2.02-.88-3.28,0-1.12.27-2.14.8-3.08.53-.94,1.27-1.68,2.2-2.23.93-.55,1.97-.83,3.1-.83,1.05,0,2.02.28,2.89.83.87.55,1.56,1.29,2.07,2.22.51.93.77,1.94.77,3.04,0,.28,0,.53-.02.73-.02.2-.03.34-.05.4h-8.56c.19.79.58,1.38,1.17,1.79.59.41,1.29.61,2.11.61.57,0,1.13-.08,1.69-.24.56-.16,1.06-.39,1.5-.68l1.18,2.26c-1.31.86-2.77,1.3-4.39,1.3-1.16,0-2.24-.24-3.22-.73ZM142.51,134.42c-.53-.46-1.16-.68-1.89-.68s-1.3.23-1.83.68c-.53.46-.87,1.05-1.03,1.79h5.71c-.11-.74-.43-1.34-.97-1.79Z"/>
    <path d="M150.1,131.33v1.41c.47-.55,1.03-.96,1.69-1.24.65-.27,1.35-.41,2.09-.41,1.05,0,1.98.27,2.79.81.81.54,1.43,1.28,1.87,2.2.44.93.66,1.96.66,3.09s-.22,2.17-.67,3.11c-.45.94-1.08,1.69-1.9,2.23-.82.54-1.75.81-2.81.81-.69,0-1.36-.14-1.99-.41s-1.16-.66-1.57-1.17v4.74h-3.16v-15.19h2.99ZM155.16,139.53c.54-.6.81-1.37.81-2.3s-.27-1.69-.81-2.3c-.54-.6-1.25-.91-2.11-.91-.8,0-1.47.3-2,.9-.53.6-.8,1.37-.8,2.31s.26,1.69.79,2.3c.53.61,1.2.91,2.02.91.86,0,1.57-.3,2.11-.91Z"/>
    <path d="M162.61,142.55c-.97-.54-1.73-1.29-2.29-2.23-.56-.94-.84-1.97-.84-3.09s.28-2.15.84-3.09c.56-.94,1.32-1.69,2.29-2.23.97-.54,2.02-.81,3.17-.81s2.23.27,3.19.81,1.73,1.29,2.29,2.23c.56.94.84,1.97.84,3.09s-.28,2.15-.84,3.09c-.56.94-1.32,1.69-2.29,2.23s-2.03.81-3.19.81-2.2-.27-3.17-.81ZM167.99,139.53c.59-.6.88-1.37.88-2.3s-.29-1.67-.88-2.29c-.59-.61-1.32-.92-2.2-.92s-1.62.31-2.2.92c-.59.61-.88,1.38-.88,2.29s.29,1.69.88,2.3c.59.61,1.32.91,2.2.91s1.61-.3,2.2-.91Z"/>
    <path d="M175.85,131.33v2.26c.22-.63.67-1.2,1.36-1.72.68-.52,1.61-.78,2.77-.78v3.44c-1.38,0-2.41.33-3.08.98-.67.65-1,1.68-1,3.08v4.53h-3.16v-11.79h3.11Z"/>
    <path d="M182.49,142.33c-.62-.68-.93-1.69-.93-3.01v-5.45h-1.72v-2.55h1.72v-2.26l3.16-.71v2.97h3.25v2.55h-3.25v5.4c0,.47.1.81.29,1.03s.45.32.77.32.61-.06.9-.18c.28-.12.49-.22.61-.32l.9,2.33c-.9.6-1.89.9-2.99.9-1.18,0-2.08-.34-2.7-1.03Z"/>
    <path d="M188.57,129.34c-.37-.37-.55-.81-.55-1.31s.18-.96.55-1.33c.37-.37.81-.55,1.31-.55s.96.19,1.33.55c.37.37.55.81.55,1.33s-.18.94-.55,1.31c-.37.37-.81.55-1.33.55s-.94-.18-1.31-.55ZM191.48,131.33v11.79h-3.16v-11.79h3.16Z"/>
    <path d="M194.6,131.33l2.19,6.06c.38,1.04.67,1.91.87,2.62.05-.2.15-.54.31-1.01.16-.47.34-1,.54-1.58l2.19-6.08h3.14l-4.64,11.81h-3.11l-4.64-11.81h3.16Z"/>
    <path d="M206.21,142.55c-.97-.54-1.73-1.29-2.29-2.23-.56-.94-.84-1.97-.84-3.09s.28-2.15.84-3.09c.56-.94,1.32-1.69,2.29-2.23s2.02-.81,3.17-.81,2.23.27,3.19.81c.97.54,1.73,1.29,2.29,2.23.56.94.84,1.97.84,3.09s-.28,2.15-.84,3.09c-.56.94-1.32,1.69-2.29,2.23-.97.54-2.03.81-3.19.81s-2.2-.27-3.17-.81ZM211.59,139.53c.59-.6.88-1.37.88-2.3s-.29-1.67-.88-2.29c-.59-.61-1.32-.92-2.2-.92s-1.61.31-2.2.92c-.59.61-.88,1.38-.88,2.29s.29,1.69.88,2.3c.59.61,1.32.91,2.2.91s1.61-.3,2.2-.91Z"/>
  </g>
  <g>
    <path d="M30.29,173.88c0,5.36-4.52,8.47-13,8.47H0v-30.73h16.42c8.47,0,12.43,3.38,12.43,8.03,0,2.85-1.45,5.22-4.26,6.63,3.6,1.32,5.71,3.95,5.71,7.6ZM10.19,158.87v4.57h4.83c2.33,0,3.38-.79,3.38-2.28s-1.05-2.28-3.38-2.28h-4.83ZM19.85,172.7c0-1.58-1.14-2.41-3.42-2.41h-6.23v4.83h6.23c2.28,0,3.42-.83,3.42-2.41Z"/>
    <path d="M27.88,166.99c0-9.31,7.33-16.07,17.34-16.07s17.34,6.76,17.34,16.07-7.33,16.07-17.34,16.07-17.34-6.76-17.34-16.07ZM52.12,166.99c0-4.79-3.07-7.68-6.89-7.68s-6.89,2.9-6.89,7.68,3.07,7.68,6.89,7.68,6.89-2.9,6.89-7.68Z"/>
    <path d="M59.58,179.9l3.34-7.55c2.9,1.71,6.76,2.81,10.14,2.81,2.94,0,4-.61,4-1.67,0-3.86-16.99-.75-16.99-12.21,0-5.71,4.79-10.36,14.31-10.36,4.13,0,8.39.88,11.59,2.68l-3.12,7.51c-3.03-1.54-5.88-2.28-8.56-2.28-3.03,0-4,.88-4,1.93,0,3.69,16.99.61,16.99,11.94,0,5.62-4.79,10.36-14.31,10.36-5.14,0-10.32-1.27-13.39-3.16Z"/>
    <path d="M120.65,186.22c-2.15,2.55-5.27,3.91-8.96,3.91-5.44,0-8.82-1.71-14.36-7.51-7.73-1.62-13.04-7.73-13.04-15.63,0-9.31,7.33-16.07,17.34-16.07s17.34,6.76,17.34,16.07c0,6.81-3.91,12.25-9.92,14.66.92.97,1.76,1.27,2.85,1.27,1.49,0,2.99-.7,4.26-1.98l4.48,5.27ZM94.75,166.99c0,4.79,3.07,7.68,6.89,7.68s6.89-2.9,6.89-7.68-3.07-7.68-6.89-7.68-6.89,2.9-6.89,7.68Z"/>
    <path d="M117.67,168.52v-16.9h10.36v16.6c0,4.7,1.8,6.45,4.7,6.45s4.7-1.76,4.7-6.45v-16.6h10.19v16.9c0,9.22-5.53,14.53-14.97,14.53s-14.97-5.31-14.97-14.53Z"/>
    <path d="M173.08,174.54v7.82h-25.55v-30.73h24.98v7.82h-14.8v3.6h13v7.46h-13v4.04h15.37Z"/>
    <path d="M199.68,182.35l-.09-14.01-6.67,11.24h-4.57l-6.67-10.76v13.52h-9.44v-30.73h8.52l10.01,16.38,9.75-16.38h8.52l.09,30.73h-9.44Z"/>
    <path d="M230.24,177h-11.68l-2.06,5.36h-10.54l13.44-30.73h10.19l13.44,30.73h-10.71l-2.06-5.36ZM227.39,169.53l-2.99-7.73-2.99,7.73h5.97Z"/>
    <path d="M253.03,174.63h-2.81v7.73h-10.36v-30.73h14.8c8.56,0,14.01,4.48,14.01,11.59,0,4.43-2.11,7.77-5.8,9.66l6.45,9.48h-11.06l-5.22-7.73ZM253.99,159.61h-3.78v7.2h3.78c2.85,0,4.21-1.36,4.21-3.6s-1.36-3.6-4.21-3.6Z"/>
  </g>
</svg>