<?xml version="1.0" encoding="UTF-8"?>
<svg xmlns="http://www.w3.org/2000/svg" xmlns:xlink="http://www.w3.org/1999/xlink" viewBox="7.82 0 253.67 113.84">
  <defs>
    <style>
      .st0 { fill: url(#grad_c); }
      .st1 { fill: #ff8b00; }
      .st2 { fill: url(#grad_b); }
    </style>
    <linearGradient id="grad_c" x1="7.82" y1="56.92" x2="97.72" y2="56.92" gradientUnits="userSpaceOnUse">
      <stop offset="0" stop-color="#03a596"/>
      <stop offset=".46" stop-color="#16d1ac"/>
      <stop offset=".94" stop-color="#28fbc1"/>
    </linearGradient>
    <linearGradient id="grad_b" x1="134.53" y1="57.05" x2="261.49" y2="57.05" xlink:href="#grad_c"/>
  </defs>
  <g>
    <path class="st0" d="M64.74,88.53c-17.44,0-31.61-14.18-31.61-31.62s14.17-31.61,31.61-31.61h32.52V0h-32.52c-15.19,0-29.49,5.91-40.25,16.67C13.74,27.43,7.82,41.73,7.82,56.92c0,31.39,25.52,56.92,56.92,56.92h32.47c.17,0,.34,0,.51,0l-.13-25.3h-32.85Z"/>
    <path class="st2" d="M261.49,79.05c0-8.34-2.94-16-7.84-22,4.9-6,7.84-13.66,7.84-22,0-.02,0-.03,0-.05,0-.07,0-.15,0-.22,0-19.21-15.57-34.79-34.79-34.79h-92.17,0c12.04.05,22.61,2.59,31.72,7.64,9.19,5.09,16.31,11.98,21.34,20.64,5.03,8.67,7.55,18.21,7.55,28.63s-2.52,19.97-7.55,28.63c-5.04,8.67-12.15,15.55-21.34,20.64-9.05,5.01-19.54,7.55-31.48,7.63l-.25.27h92.17c19.21,0,34.79-15.58,34.79-34.79,0-.07,0-.15,0-.22,0-.02,0-.03,0-.05ZM226.71,88.79h-23.4v-18.96h23.4c5.24,0,9.48,4.24,9.48,9.48s-4.24,9.48-9.48,9.48ZM226.71,44.27h-23.4v-18.96h23.4c5.24,0,9.48,4.25,9.48,9.48s-4.24,9.48-9.48,9.48Z"/>
  </g>
  <path class="st1" d="M122.18,27.37v59.1s44.44,7.23,44.44-29.55-44.44-29.55-44.44-29.55Z"/>
</svg>
